<svg xmlns="http://www.w3.org/2000/svg" viewBox="0 0 64 64">
  <defs>
    <linearGradient id="pulsarGradient" x1="0%" y1="0%" x2="100%" y2="100%">
      <stop offset="0%" style="stop-color:#188fff"/>
      <stop offset="100%" style="stop-color:#0066cc"/>
    </linearGradient>
  </defs>
  <rect width="64" height="64" rx="12" fill="#0f172a"/>
  <g transform="translate(6, 10) scale(0.85)">
    <path fill="url(#pulsarGradient)" d="M61,13.73H46.09C42.06,6,37.8,0,32,0c-7.55,0-11.1,6.59-14.53,13l-.3.56H0v3.81H10c3.53,0,4.25,1.19,4.25,1.19-2.77,4.3-6.1,8.55-11.65,8.55H0v4H2.62c10.76,0,15.46-8.73,19.23-15.74C25.31,8.91,27.72,5,32,5c4.44,0,9.11,9.66,13.22,18.19.6,1.24,1.21,2.51,1.83,3.77-15.76.5-23.27,4.19-29.38,7.2-4.47,2.2-8,4.93-13.81,4.93H0v4H3.83c7,0,11.36-2.16,16-4.45,6.43-3.16,13.72-6.74,30.9-6.74h9.93v-4H55.05a3,3,0,0,1-2.47-1C51.6,25,50.64,23,49.7,21L48.4,18.34s.93-1,3.51-1H61Z"/>
  </g>
</svg>
